:SAMPLES-PER-SECOND 30
:FULLY-SPECIFIED
:DEGREES
545
root  23.5488 22.615 -51.4651 4.80316 -23.7184 10.4026
RightUpLeg  -75.4057 -12.0698 7.50226
RightLeg  112.143 -2.52413 8.02196
RightFoot  -21.077 -0.691604 -3.33892
RightToes  -32.0645 -0.158393 -0.266056
Spine  14.989 0.931186 1.84812
Spine1  27.4072 4.30758 -1.18736
HEad  -26.268 -41.5702 55.6295
LeftShoulder1  0 -2.42657e-020 -4.95415e-022
LeftArm  -19.8408 -0.93434 -68.5753
LeftForeArm  40.0374 -41.4994 -8.96877
LeftHand  -0.421225 -8.03872 5.62413
RightShoulder  0 2.42657e-020 1.07489e-018
RightArm  -81.7256 14.2971 61.835
RightForeArm  18.428 18.5185 3.38209
RightHand  0.14783 16.2383 1.40676
LeftUpLeg  -50.8653 -0.488089 23.2975
LeftLeg  67.7635 -6.09913 -12.3467
LeftFoot  -16.186 0.416408 2.92776
LeftToes  -61.1914 3.33339e-006 -4.73431e-007
546
root  23.5653 22.5477 -51.2785 1.65027 -25.6947 12.2089
RightUpLeg  -75.4172 -12.3132 -4.24969
RightLeg  117.19 -1.1145 2.99539
RightFoot  -22.353 -0.280469 -1.04195
RightToes  -22.6878 -0.0969435 -0.198074
Spine  15.8215 -0.647077 3.69687
Spine1  29.5659 1.36477 0.789309
HEad  -28.0995 -40.5776 50.2771
LeftShoulder1  0 -2.42657e-020 -4.95415e-022
LeftArm  -20.8743 -0.342358 -66.2657
LeftForeArm  39.9318 -40.7839 -8.74263
LeftHand  -0.484871 -8.56749 6.10125
RightShoulder  0 2.42657e-020 1.07489e-018
RightArm  -84.6831 15.8878 47.4319
RightForeArm  17.5624 19.7642 3.62818
RightHand  0.0197717 16.6278 0.505505
LeftUpLeg  -47.2041 2.18239 21.3006
LeftLeg  67.8596 -6.77053 -13.7063
LeftFoot  -16.7268 0.516661 3.51327
LeftToes  -61.7782 3.33339e-006 -4.73431e-007
547
root  23.2337 22.7617 -51.2355 -0.0164795 -28.7519 14.4543
RightUpLeg  -76.2605 -11.3156 -16.329
RightLeg  117.698 2.35923 -4.85238
RightFoot  -24.6031 0.531292 2.81369
RightToes  -6.16378 -0.0184425 -0.0573849
Spine  15.9693 -1.14673 5.94524
Spine1  30.7542 1.13251 2.21149
HEad  -30.0504 -38.6664 45.1456
LeftShoulder1  0 -2.42657e-020 -4.95415e-022
LeftArm  -21.8838 0.97133 -65.33
LeftForeArm  39.1921 -39.0768 -8.2234
LeftHand  -0.366581 -8.43862 4.59968
RightShoulder  0 2.42657e-020 1.07489e-018
RightArm  -87.4264 16.3156 31.7076
RightForeArm  18.0049 21.0418 3.88502
RightHand  0.103028 18.063 1.01855
LeftUpLeg  -43.0011 6.77431 19.6761
LeftLeg  65.0348 -7.68319 -13.7644
LeftFoot  -15.6773 0.467099 3.3919
LeftToes  -62.4287 3.33339e-006 -4.73431e-007
548
root  22.6842 23.2429 -51.2986 -0.6521 -32.4619 18.5567
RightUpLeg  -78.757 -11.5309 -28.2738
RightLeg  113.287 3.69385 -9.77451
RightFoot  -26.4782 1.18405 5.40743
RightToes  3.05392 0.00682592 0.0290848
Spine  15.4082 -0.775152 7.92528
Spine1  30.7264 2.74456 3.16147
HEad  -31.624 -36.3647 40.4911
LeftShoulder1  0 -2.42657e-020 -4.95415e-022
LeftArm  -22.4481 2.5215 -65.8713
LeftForeArm  40.6531 -36.1199 -7.37935
LeftHand  -0.351521 -9.06089 4.0673
RightShoulder  0 2.42657e-020 1.07489e-018
RightArm  -92.6556 15.6271 16.3575
RightForeArm  25.1221 21.1847 3.91375
RightHand  -0.632535 19.8079 -3.25264
LeftUpLeg  -39.0795 11.1967 16.712
LeftLeg  59.4786 -9.09579 -13.1034
LeftFoot  -13.7231 0.348591 2.89629
LeftToes  -62.655 3.33339e-006 -4.73431e-007
549
root  21.7003 23.9524 -51.4582 -0.958252 -39.0892 23.6412
RightUpLeg  -82.9574 -11.274 -35.3621
RightLeg  104.704 3.93365 -18.7174
RightFoot  -28.1794 2.38816 9.87231
RightToes  11.9172 0.017757 0.115021
Spine  15.1609 0.944835 9.6582
Spine1  31.1273 7.13701 3.92226
HEad  -33.1537 -33.2948 36.2413
LeftShoulder1  0 -2.42657e-020 -4.95415e-022
LeftArm  -24.9299 4.46078 -68.3083
LeftForeArm  43.1992 -33.4557 -6.67159
LeftHand  -0.325413 -9.73633 3.45181
RightShoulder  0 2.42657e-020 1.07489e-018
RightArm  -100.861 14.8803 2.6114
RightForeArm  30.5218 20.7252 3.81833
RightHand  -1.13224 21.0299 -5.72627
LeftUpLeg  -33.2217 19.1359 13.8401
LeftLeg  50.4017 -11.5721 -12.0327
LeftFoot  -10.0884 0.171095 1.93822
LeftToes  -64.0676 3.33339e-006 -4.73431e-007
